PathFileType	4	(X/Y/Z)	10_2_68_p0_0-591_filt_butterworth.trc
DataRate	CameraRate	NumFrames	NumMarkers	Units	OrigDataRate	OrigDataStartFrame	OrigNumFrames
60.0	60.0	5	27	m	60.0	517	591
Frame#	Time	RHip			RKnee			RAnkle			RBigToe			RSmallToe			RHeel			LHip			LKnee			LAnkle			LBigToe			LSmallToe			LHeel			Neck			Head			Nose			RShoulder			RElbow			RWrist			RThumb			RIndex			RPinky			LShoulder			LElbow			LWrist			LThumb			LIndex			LPinky			
		X1	Y1	Z1	X2	Y2	Z2	X3	Y3	Z3	X4	Y4	Z4	X5	Y5	Z5	X6	Y6	Z6	X7	Y7	Z7	X8	Y8	Z8	X9	Y9	Z9	X10	Y10	Z10	X11	Y11	Z11	X12	Y12	Z12	X13	Y13	Z13	X14	Y14	Z14	X15	Y15	Z15	X16	Y16	Z16	X17	Y17	Z17	X18	Y18	Z18	X19	Y19	Z19	X20	Y20	Z20	X21	Y21	Z21	X22	Y22	Z22	X23	Y23	Z23	X24	Y24	Z24	X25	Y25	Z25	X26	Y26	Z26	X27	Y27	Z27	
517	8.616666666666667	0.3082927674985849	0.536152130769894	0.926706020517936	0.31298459489440444	0.6678449488214553	1.3893329875873752	0.30527374538221463	0.7953548775149496	1.8023148205572448	0.27666294288554705	0.5908888444401017	1.844811048839691	0.3261628190612162	0.644586954314789	1.8527229670265628	0.27303397946191854	0.8921496269266025	1.8618299518133505	0.08572565068021178	0.5176310328227955	0.9274911765616216	0.08717109981753016	0.6487618433360097	1.374060191074306	0.08304592156851372	0.7779030700511197	1.8013322548055963	0.12231027938993119	0.5986827822391492	1.8519148438830317	0.06272736981137524	0.6252232464413093	1.8406265833045272	0.09090699288116567	0.8818745008145761	1.8553609328856284	0.20708671568551845	0.3808349563556991	0.35805227647910887	0.21499311341445163	0.2677521335410382	0.11426645616494926	0.21881742849485153	0.2430094639381879	0.248133613214916	0.3762402370533765	0.4483808070209374	0.44493924581728317	0.4042915977810579	0.5249811907253834	0.7248363453920253	0.4234551410065184	0.5312046415140551	0.9765405863663182	0.37045422077620077	0.49270168225858624	1.1125890490871089	0.39364630193462036	0.5162633728396052	1.1485789044246437	0.42367937182400633	0.5980588144076355	1.1529323851508344	0.04972906133393914	0.4189362894014383	0.4274732513139212	-0.0206294951924256	0.483442514889399	0.7212590155527534	-0.018398269252703013	0.4807252859354978	0.9775836744454224	0.04069339189804868	0.46313141632441746	1.085721763254619	0.012684608823834041	0.4602299677341657	1.1073409746902994	-0.029819649533469335	0.5364987295401369	1.1132143834276556
518	8.633333333333333	0.3083527712856966	0.5366113889756237	0.9276843768590004	0.3131063749109294	0.6680124263291417	1.3901604933092762	0.30694514838121795	0.7956550769892108	1.8002913062743522	0.27667365229462615	0.590896280985743	1.844836412978741	0.3260684042266324	0.645048206928708	1.8518512580764286	0.2727063096460818	0.8921492057842081	1.8598316868717895	0.08473433708094738	0.5140739860385863	0.9272803699935798	0.08717194940175702	0.648809618525568	1.3740884473439967	0.08305651552870112	0.7779443392663096	1.8013233579980843	0.12233144546041205	0.5986359337035889	1.8517241153679938	0.0628849459776807	0.6253341062698254	1.8400820983848385	0.09134427050316013	0.8823389298345639	1.8554185219333088	0.20713433204670617	0.38088115537984146	0.35807732509245727	0.2133085738362239	0.27060667001109046	0.11252270095945964	0.21815687281707524	0.24179572366499488	0.2480959114052069	0.3759163752730375	0.4469569933780165	0.44372887244846726	0.40417701475466944	0.5253165810130763	0.7261075070446271	0.42344408582707016	0.5312293009858938	0.9778195807313692	0.3701856867407994	0.4920213907033983	1.1110320674660328	0.39250221954698206	0.5184330650343174	1.1489240580314166	0.4235949436717198	0.5980704387092788	1.1531147926444683	0.04969546912958675	0.4189870643653277	0.4275224911499817	-0.020687037453553735	0.4834532140249146	0.7222010354213585	-0.018296325457391335	0.48084655594843145	0.9780474215138567	0.041104234703207856	0.46344176087408895	1.0868259059239085	0.013048910120431769	0.46055260736267317	1.1073416068255866	-0.029805402588595042	0.536456445219448	1.113214747016401
519	8.65	0.30825533070525096	0.5371363762192627	0.9277324523687498	0.3130880798332313	0.6680833669831029	1.3902241777062374	0.3083392006937167	0.7956853736721491	1.79855752814144	0.27663952231510835	0.590841578819244	1.844799516854577	0.3259574924322991	0.6451529425060849	1.850121582251015	0.272501507526325	0.8921455350823733	1.8591426481490454	0.08294452188507781	0.511672241127655	0.9271465202267934	0.08716449603781277	0.6488443698845574	1.374061991024525	0.08305642592876462	0.7779555100525801	1.8013118057100472	0.1224000605182604	0.5985954550910956	1.8517291150857946	0.0629132719275913	0.6253918671982776	1.8399638692067488	0.09137290396817652	0.8823729964878859	1.855435363178772	0.20667407663435053	0.38223277851996296	0.3580193209837956	0.2116578594958148	0.2746483522686064	0.11088722117565783	0.2174964303507822	0.23899021929036499	0.24782493562387065	0.3751043436617308	0.4438221828195507	0.44297639917382403	0.404074935890328	0.5255821996894422	0.7270846757185216	0.42332903880201017	0.5315677004102833	0.9803834420176971	0.3699798728828779	0.491500342950874	1.109842545714379	0.39205423706767933	0.5189354946920468	1.1489797840034475	0.42350928859732695	0.5981579542091822	1.1533451672314163	0.04966767527912962	0.41903239022973837	0.4275679902182592	-0.02076518457826473	0.48337443118706036	0.7225758869192223	-0.01816900246808413	0.48059659933955434	0.9780812211315371	0.041126775067991964	0.4636663562309181	1.088228431109158	0.01302754471554503	0.46063611099476476	1.1073610070926905	-0.029812937942150612	0.5364526139460726	1.1132380185379775
520	8.666666666666666	0.3080022700636822	0.5373944268175763	0.9267836301219055	0.3130323671665669	0.6680873315861359	1.3900483232258116	0.30897587493105283	0.7956331168694856	1.7977771781474898	0.2766053988428467	0.5907306705379953	1.8447730847282644	0.32588620955853287	0.6448383600890413	1.848731816679305	0.27245295331371894	0.8921200923469029	1.8592127649642414	0.08122957116245201	0.5107949868433695	0.9271179028802057	0.0871454000116559	0.6488594242563587	1.373976467243415	0.08305959557549558	0.7779474730839032	1.8013150356313286	0.12255950012261282	0.5986948367516465	1.8526549066634024	0.06287500076433733	0.6255150615055185	1.8401621038649223	0.09130654121629306	0.8823218867040198	1.8554529813625573	0.2053282825271451	0.38541037644333076	0.35771016067592887	0.21050569395772342	0.2777671653423805	0.10998221327193151	0.2165612809694511	0.23542761879919494	0.24761631714160484	0.37403464028421807	0.4398655610596661	0.44288946599766144	0.40401283213399936	0.5257055550045536	0.7275228783037366	0.4231934276346838	0.5320181705744477	0.9823844087232917	0.3698968357887845	0.49125741119028105	1.1093527244623105	0.3920887546350767	0.5175074645173193	1.1487157074690943	0.42344486506925466	0.5983108183777086	1.1535282067285468	0.04965545603156498	0.4190570516223753	0.42757182969274704	-0.021172627355157896	0.48311966859976485	0.7225984992769716	-0.018192902044145826	0.48054144021267003	0.9780408702506898	0.04107454912410474	0.4639846795014311	1.0892929069664372	0.012922272097610352	0.46066839163729245	1.1074035176894186	-0.029842382816011863	0.5364801782605285	1.113268607125121
521	8.683333333333334	0.30778395262005603	0.5372925398850762	0.925697062442898	0.31299964387275214	0.6680726542431978	1.3899281132690324	0.3090939773970968	0.7955568303959489	1.797671051024812	0.27657913170803133	0.5906317817092774	1.844744667390698	0.3258178011123108	0.6442682123365242	1.8484421112507277	0.2724622533124654	0.8920672207892792	1.8594176808537188	0.08051864128773313	0.5108185147892164	0.9271601210938891	0.08714976575328097	0.648841117063381	1.3739682998778386	0.0830721373988301	0.7779165447056928	1.801346633663568	0.12287107001332981	0.5990300021340161	1.854996893164786	0.06275186635707765	0.6257393674814894	1.8408620749656217	0.09128098348085137	0.8822904146865068	1.855490512407374	0.2031450941555784	0.38917618783194813	0.3569929125945335	0.21004852363404114	0.2789877846489894	0.10977091790115248	0.21479545486639384	0.23273059633223392	0.24766801520131013	0.37321894191199956	0.4369120474891749	0.4431276641078606	0.4039890278583811	0.5256997662235899	0.7275311346112936	0.4231141899541278	0.5323455480616351	0.9826824848487804	0.36990326398060625	0.4911859832121685	1.10934603810656	0.39228549868453294	0.5137158314157753	1.1480708038335516	0.4234129650001814	0.5984458237777764	1.1536074832868384	0.04967742830993665	0.4190065188842843	0.4275381733213054	-0.022154889179060052	0.4825870061839543	0.7225602571997474	-0.018807960700668404	0.48156178626166407	0.9780639710316166	0.04105281562210189	0.46420901415573634	1.0897207711153425	0.012866431797063187	0.4607411966765471	1.1074637344902807	-0.029887359819506396	0.5365336363517077	1.1132919425661953
